<svg t="1666100741182" class="icon" viewBox="0 0 1024 1024" version="1.1" xmlns="http://www.w3.org/2000/svg" p-id="18551" width="200" height="200"><path d="M517 519.9H184.6c-9.3 0-16.9 7.6-16.9 16.9 0 9.3 7.6 16.9 16.9 16.9H517c9.3 0 16.9-7.6 16.9-16.9 0-9.3-7.6-16.9-16.9-16.9zM356.9 626.6H184.6c-9.3 0-16.9 7.6-16.9 16.9 0 9.3 7.6 16.9 16.9 16.9h172.3c9.3 0 16.9-7.6 16.9-16.9 0-9.3-7.6-16.9-16.9-16.9z m457.9-106.8H690.7c-9.8 0-17.8 8-17.8 17.8V608c0 9.8 8 17.8 17.8 17.8h124.1c9.8 0 17.8-8 17.8-17.8v-70.4c0-9.8-7.9-17.8-17.8-17.8z m36-319.2H175c-58.8 0-106.7 47.9-106.7 106.7v409.1c0 58.8 47.9 106.7 106.7 106.7h675.8c58.8 0 106.7-47.9 106.7-106.7V307.3c0-58.8-47.9-106.7-106.7-106.7z m71.1 515.8c0 39.2-31.9 71.1-71.1 71.1H175c-39.2 0-71.1-31.9-71.1-71.1V413.6h815.9v-37.1h-816v-69.1c0-39.2 31.9-71.1 71.1-71.1h675.8c39.2 0 71.1 31.9 71.1 71.1v409z" p-id="18552" fill="#a52a2a"></path></svg>