<?xml version="1.0" standalone="no"?><!DOCTYPE svg PUBLIC "-//W3C//DTD SVG 1.1//EN" "http://www.w3.org/Graphics/SVG/1.1/DTD/svg11.dtd"><svg t="1673359939160" class="icon" viewBox="0 0 1024 1024" version="1.1" xmlns="http://www.w3.org/2000/svg" p-id="5950" xmlns:xlink="http://www.w3.org/1999/xlink" width="200" height="200"><path d="M472.003 98.93c78.022 36.01 139.603 95.17 184.529 176.598l47.18-141.544 36.6 49.672C843.586 323.81 895.86 454.499 895.86 575.91c0 210.788-141.92 362.61-383.94 362.61-233.056 0-383.94-171.938-383.94-362.61 0-98.763 40.7-220.863 121.275-367.364l23.572-42.858L376.891 300.97c22.818-55.21 39.538-114.61 50.144-178.25l6.894-41.363 38.074 17.573z m-189.76 183.949C221.864 401.118 191.97 499.048 191.97 575.91c0 157.056 124.23 298.62 319.95 298.62 205.678 0 319.95-122.244 319.95-298.62 0-91.878-35.437-192.792-107.14-302.62l-61.726 185.174-31.732-84.62C597.448 283.647 547.734 218.383 481.85 176.9c-15.368 71.661-38.46 138.354-69.292 200.019l-22.839 45.678L282.242 282.88zM725.21 575.91c0.006 0.653 0.009 1.306 0.009 1.96 0 117.802-95.498 213.3-213.3 213.3v-63.99c82.462 0 149.31-66.848 149.31-149.31 0-0.654-0.004-1.308-0.013-1.96h63.994z" fill="#8a8a8a" p-id="5951"></path></svg>