<svg t="1681307048204" class="icon" viewBox="0 0 1024 1024" version="1.1" xmlns="http://www.w3.org/2000/svg" p-id="2921" width="200" height="200"><path d="M737.8 944.3h-458c-88.3 0-160.2-71.9-160.2-160.2V233.5c0-88.3 71.9-160.2 160.2-160.2h458c88.3 0 160.2 71.9 160.2 160.2V784c0 88.4-71.9 160.3-160.2 160.3zM275.4 113.6c-63.2 0-114.6 51.4-114.6 114.6v561.3c0 63.2 51.4 114.6 114.6 114.6h466.9c63.2 0 114.6-51.4 114.6-114.6V228.2c0-63.2-51.4-114.6-114.6-114.6H275.4z" fill="" p-id="2922"></path><path d="M679.3 396.1h-341c-11.5 0-20.8-9.3-20.8-20.8s9.3-20.8 20.8-20.8h341c11.5 0 20.8 9.3 20.8 20.8s-9.3 20.8-20.8 20.8zM643.8 529.6H373.9c-11.5 0-20.8-9.3-20.8-20.8s9.3-20.8 20.8-20.8h269.9c11.5 0 20.8 9.3 20.8 20.8s-9.3 20.8-20.8 20.8zM619.6 663.1H398c-11.5 0-20.8-9.3-20.8-20.8s9.3-20.8 20.8-20.8h221.7c11.5 0 20.8 9.3 20.8 20.8-0.1 11.5-9.4 20.8-20.9 20.8z" fill="" p-id="2923"></path></svg>