<?xml version="1.0" standalone="no"?><!DOCTYPE svg PUBLIC "-//W3C//DTD SVG 1.1//EN" "http://www.w3.org/Graphics/SVG/1.1/DTD/svg11.dtd"><svg t="1672739255955" class="icon" viewBox="0 0 1024 1024" version="1.1" xmlns="http://www.w3.org/2000/svg" p-id="3583" xmlns:xlink="http://www.w3.org/1999/xlink" width="200" height="200"><path d="M450.225563 117.841895 305.005111 117.841895c-14.145162 0-25.611308-11.467169-25.611308-25.611308s11.467169-25.611308 25.611308-25.611308l145.220453 0c14.145162 0 25.611308 11.467169 25.611308 25.611308S464.369701 117.841895 450.225563 117.841895z" p-id="3584"></path><path d="M161.934624 857.670787c-14.145162 0-25.611308-11.466146-25.611308-25.611308L136.323317 168.769798c0-56.325843 45.824675-102.150518 102.150518-102.150518l66.532299 0c14.145162 0 25.611308 11.467169 25.611308 25.611308s-11.467169 25.611308-25.611308 25.611308l-66.532299 0c-28.080545 0-50.92688 22.846334-50.92688 50.92688l0 663.289682C187.545932 846.204641 176.078763 857.670787 161.934624 857.670787z" p-id="3585"></path><path d="M533.850146 347.296821c-6.27082 0-12.349259-1.311879-17.491373-3.500731-13.472849-5.734608-21.842471-17.800411-21.842471-31.487132L494.516302 92.230588c0-14.145162 11.466146-25.611308 25.611308-25.611308s25.611308 11.467169 25.611308 25.611308l0 188.204429 27.598568-26.505677c14.002922-13.443174 35.911908-13.430894 49.880037 0.025583l22.036899 21.170159L645.254422 92.230588c0-14.145162 11.466146-25.611308 25.611308-25.611308s25.611308 11.467169 25.611308 25.611308l0 218.669278c0 14.44192-8.585539 27.434839-21.872147 33.098839-13.284561 5.665023-28.606525 2.862187-39.027875-7.138584l-37.315884-35.848463-37.318954 35.8413C553.188586 344.313883 543.303448 347.296821 533.850146 347.296821z" p-id="3586"></path><path d="M845.000722 956.897719 238.447229 956.897719c-56.311517 0-102.123912-45.812395-102.123912-102.123912l0-22.714328c0-14.145162 11.467169-25.611308 25.611308-25.611308s25.611308 11.466146 25.611308 25.611308l0 22.714328c0 28.067242 22.834055 50.900274 50.901297 50.900274l606.553493 0c14.145162 0 25.611308 11.466146 25.611308 25.611308S859.145883 956.897719 845.000722 956.897719z" p-id="3587"></path><path d="M161.949974 874.368074c-0.300852 0-0.601704-0.00614-0.904603-0.016373-14.135952-0.490164-25.198915-12.348236-24.707728-26.485211 0.976234-28.120454 6.253424-48.251957 16.60826-63.355957 13.712303-20.001543 35.247782-30.142507 64.006779-30.142507l612.344383 0c3.192715-2.719948 6.405897-6.04467 8.53028-8.521071L837.827345 134.588301c-1.827625-5.106298-11.640108-14.918781-16.746406-16.746406l-370.856399 0c-14.145162 0-25.611308-11.467169-25.611308-25.611308s11.467169-25.611308 25.611308-25.611308l371.948267 0c19.715017 0 36.511565 13.852496 44.768623 22.10853 8.257058 8.257058 22.109554 25.053606 22.109554 44.768623L889.050983 752.470817c0 10.781554-6.186909 19.493983-12.238742 26.593681-4.572132 5.363148-10.217712 10.939143-15.493879 15.300474-1.042749 0.862647-2.102894 1.701758-3.139503 2.483564-5.417383 4.076852-12.82612 8.743128-22.251793 8.743128L216.953705 805.591665c-14.966876 0-27.89328 0-29.423123 44.052309C187.050652 863.47805 175.68479 874.367051 161.949974 874.368074z" p-id="3588"></path><path d="M285.729092 805.006334c-14.145162 0-25.611308-11.466146-25.611308-25.611308L260.117784 92.230588c0-14.145162 11.467169-25.611308 25.611308-25.611308s25.612331 11.467169 25.612331 25.611308l0 687.164439C311.340399 793.540188 299.87323 805.006334 285.729092 805.006334z" p-id="3589"></path><path d="M843.816756 956.936605c-0.511653 0-1.029446-0.011256-1.557472-0.032746-6.594185-0.279363-29.833469-2.321882-52.017724-16.835434-19.367093-12.672624-42.451858-37.874609-42.451858-85.975117 0-62.032822 35.535331-100.567463 92.737124-100.567463 14.145162 0 25.611308 11.466146 25.611308 25.611308s-11.466146 25.611308-25.611308 25.611308c-12.422937 0-41.513486 0-41.513486 49.344848 0 20.893866 6.54916 35.152615 20.022009 43.589774 10.549264 6.605442 22.034852 7.80885 24.87862 8.010441 1.424442-0.061398 2.874467 0 4.337795 0.188288 13.612019 1.740644 23.515576 13.922081 22.354124 27.596522C869.788268 943.070806 861.969185 956.935582 843.816756 956.936605zM842.011644 905.842926c-1.12973 0.119727-2.26253 0.331551-3.390213 0.630357C839.728648 906.188804 840.860425 905.97698 842.011644 905.842926z" p-id="3590"></path></svg>