<?xml version="1.0" standalone="no"?><!DOCTYPE svg PUBLIC "-//W3C//DTD SVG 1.1//EN" "http://www.w3.org/Graphics/SVG/1.1/DTD/svg11.dtd"><svg t="1672208442199" class="icon" viewBox="0 0 1024 1024" version="1.1" xmlns="http://www.w3.org/2000/svg" p-id="3705" xmlns:xlink="http://www.w3.org/1999/xlink" width="200" height="200"><path d="M844.753 927.64H182.999V785.077h64v78.563h597.754c3.386 0 6.246-2.86 6.246-6.246V164.262c0-2.275-1.996-4.271-4.271-4.271H246.999v67.114h-64V95.99h663.729c37.645 0 68.271 30.626 68.271 68.271v693.132c0 38.734-31.512 70.247-70.246 70.247z" fill="" p-id="3706"></path><path d="M299.75 329.043H132.851c-16.267 0-29.5-13.233-29.5-29.5v-55.438c0-16.267 13.233-29.5 29.5-29.5H299.75c16.267 0 29.5 13.233 29.5 29.5v55.438c0 16.267-13.233 29.5-29.5 29.5z m-161.399-35H294.25v-44.438H138.351v44.438zM298.821 493.506H131.922c-16.267 0-29.5-13.233-29.5-29.5v-55.439c0-16.266 13.233-29.5 29.5-29.5h166.899c16.267 0 29.5 13.234 29.5 29.5v55.439c0 16.267-13.233 29.5-29.5 29.5z m-161.399-35h155.899v-44.439H137.422v44.439zM299.75 645.89H132.851c-16.267 0-29.5-13.233-29.5-29.5v-55.438c0-16.267 13.233-29.5 29.5-29.5H299.75c16.267 0 29.5 13.233 29.5 29.5v55.438c0 16.266-13.233 29.5-29.5 29.5z m-161.399-35H294.25v-44.438H138.351v44.438zM298.821 810.353H131.922c-16.267 0-29.5-13.233-29.5-29.5v-55.438c0-16.267 13.233-29.5 29.5-29.5h166.899c16.267 0 29.5 13.233 29.5 29.5v55.438c0 16.266-13.233 29.5-29.5 29.5z m-161.399-35h155.899v-44.438H137.422v44.438z" fill="" p-id="3707"></path><path d="M185.604 319.996h64v67.601h-64zM181.605 474.592h64v68.997h-64zM184.604 639.965h64v77.615h-64zM544.112 512.127h64v255.674h-64z" fill="" p-id="3708"></path><path d="M434.593 480.127h285.985v64H434.593zM434.593 586.127h285.985v64H434.593z" fill="" p-id="3709"></path><path d="M569.623 562.122L398.096 306.601l73.451-2.497 150.998 222.028z" fill="" p-id="3710"></path><path d="M583.548 562.122l-52.922-35.99 150.997-222.028 73.455 3.997z" fill="" p-id="3711"></path></svg>