<?xml version="1.0" standalone="no"?><!DOCTYPE svg PUBLIC "-//W3C//DTD SVG 1.1//EN" "http://www.w3.org/Graphics/SVG/1.1/DTD/svg11.dtd"><svg t="1661152292999" class="icon" viewBox="0 0 1024 1024" version="1.1" xmlns="http://www.w3.org/2000/svg" p-id="4242" xmlns:xlink="http://www.w3.org/1999/xlink" width="200" height="200"><defs><style type="text/css">@font-face { font-family: feedback-iconfont; src: url("//at.alicdn.com/t/font_1031158_u69w8yhxdu.woff2?t=1630033759944") format("woff2"), url("//at.alicdn.com/t/font_1031158_u69w8yhxdu.woff?t=1630033759944") format("woff"), url("//at.alicdn.com/t/font_1031158_u69w8yhxdu.ttf?t=1630033759944") format("truetype"); }
</style></defs><path d="M955.580215 194.752012l-6.795644-3.567215V47.978047c0-5.121644-2.002822-9.685288-4.673251-13.581324-0.328822-0.448393-0.558-0.886822-0.886822-1.335215-1.225607-1.444822-2.441251-2.780036-4.005644-3.886072-0.777214-0.667607-1.664036-1.225607-2.560822-1.674001-1.335215-0.777214-2.670429-1.554429-4.224858-2.112429-2.002822-0.777214-4.224858-1.116-6.456859-1.335214-0.558 0-0.996429-0.328822-1.554429-0.328822H98.970292c-10.801288 0-20.257398 7.004895-23.256649 17.35779-1.554429 5.121644-1.335215 10.462503 0.448393 15.245361-0.777214 2.341608-1.444822 4.673251-1.444821 7.234073V191.184797L67.592749 194.752012c-10.01411 1.335215-17.467397 5.898859-17.467397 16.79979v768.037366l2.232 2.112429c2.670429 20.137826 18.802612 35.612366 39.279224 36.828009l0.558 0.448393h837.249312c22.698648 0 40.724046-17.696576 42.288439-39.946831l1.116-1.006394v-766.353401c0.089679-11.020503-7.254002-15.474539-17.268112-16.919361zM857.312406 72.241089l-65.206302 41.730439c-6.22768 4.782858-9.794895 12.355717-9.456109 20.137826 0.328822 7.901681 4.34443 15.135754 10.900931 19.360612l73.775589 40.614439H160.051378l81.238842-42.069225c7.004895-4.334465 11.349324-12.016932 11.578502-20.357041 0.109607-8.350073-4.005644-16.142147-11.020502-20.586219l-72.001946-38.840795h687.466132z m42.956046 19.24104v74.223983L835.839365 131.767746l64.429087-40.285617z m-776.935475-1.444821l70.54716 40.833653-70.54716 35.721973V90.037308z m801.078945 880.534179H98.741113V242.710131h825.561202v727.861356h0.109607z m-602.67004-549.032277c17.696576 96.255023 87.34695 160.126111 181.599152 160.126111 94.142594 0 163.802933-63.651873 181.599151-159.797289 14.796968-7.782109 25.040256-23.137077 25.040256-40.94326 0-25.598256-20.805434-46.513297-46.513297-46.513297-25.598256 0-46.513297 20.805434-46.513297 46.513297 0 15.135754 7.34368 28.4879 18.583397 36.937616-13.461753 62.426265-55.521014 115.27685-132.305818 115.276849-76.675197 0-118.62485-52.63137-132.19621-114.948028 11.468896-8.459681 19.03179-21.921434 19.03179-37.276402 0-25.598256-20.915041-46.513297-46.513297-46.513297s-46.40369 20.805434-46.40369 46.513297c0.109607 17.586969 10.123717 32.832329 24.591863 40.624403z m0 0" fill="#333333" p-id="4243"></path></svg>