<?xml version="1.0" standalone="no"?><!DOCTYPE svg PUBLIC "-//W3C//DTD SVG 1.1//EN" "http://www.w3.org/Graphics/SVG/1.1/DTD/svg11.dtd"><svg t="1661158283992" class="icon" viewBox="0 0 1024 1024" version="1.1" xmlns="http://www.w3.org/2000/svg" p-id="15747" xmlns:xlink="http://www.w3.org/1999/xlink" width="200" height="200"><defs><style type="text/css">@font-face { font-family: feedback-iconfont; src: url("//at.alicdn.com/t/font_1031158_u69w8yhxdu.woff2?t=1630033759944") format("woff2"), url("//at.alicdn.com/t/font_1031158_u69w8yhxdu.woff?t=1630033759944") format("woff"), url("//at.alicdn.com/t/font_1031158_u69w8yhxdu.ttf?t=1630033759944") format("truetype"); }
</style></defs><path d="M513.2288 960.256c-22.4256 0-44.8512-8.5504-61.9008-25.6L371.2 854.528H257.8432c-48.2816 0-87.552-39.2704-87.552-87.552v-113.3568L90.112 573.44c-34.1504-34.1504-34.1504-89.6512 0-123.8016l80.1792-80.1792V256.1536c0-48.2816 39.2704-87.552 87.552-87.552H371.2l80.1792-80.1792c34.1504-34.1504 89.6512-34.1504 123.8016 0L655.36 168.6016h113.3568c48.2816 0 87.552 39.2704 87.552 87.552v113.3568l80.128 80.1792c16.5376 16.5376 25.6512 38.5024 25.6512 61.9008s-9.1136 45.3632-25.6512 61.9008l-80.128 80.128v113.3568c0 48.2816-39.2704 87.552-87.552 87.552H655.36l-80.1792 80.1792c-17.1008 17.0496-39.5264 25.5488-61.952 25.5488zM257.8432 240.2816c-8.7552 0-15.872 7.1168-15.872 15.872v128.2048c0 9.5232-3.7888 18.6368-10.496 25.344L140.8 500.3264a15.85152 15.85152 0 0 0 0 22.4256l90.6752 90.6752a35.84512 35.84512 0 0 1 10.496 25.344v128.2048c0 8.7552 7.1168 15.872 15.872 15.872H386.048c9.5232 0 18.6368 3.7888 25.344 10.496l90.6752 90.6752a15.85152 15.85152 0 0 0 22.4256 0l90.6752-90.6752a35.84512 35.84512 0 0 1 25.344-10.496h128.2048c8.7552 0 15.872-7.1168 15.872-15.872v-128.2048c0-9.5232 3.7888-18.6368 10.496-25.344L885.76 522.752a15.80032 15.80032 0 0 0 0-22.4256l-90.6752-90.6752a35.84512 35.84512 0 0 1-10.496-25.344V256.1536c0-8.7552-7.1168-15.872-15.872-15.872H640.512c-9.5232 0-18.6368-3.7888-25.344-10.496l-90.6752-90.6752a15.85152 15.85152 0 0 0-22.4256 0L411.392 229.7856a35.84512 35.84512 0 0 1-25.344 10.496H257.8432z" fill="#ffffff" p-id="15748"></path><path d="M433.7664 470.784c-53.8624 0-97.6384-43.8272-97.6384-97.6896S379.904 275.456 433.7664 275.456s97.6384 43.8272 97.6384 97.6384-43.776 97.6896-97.6384 97.6896z m0-123.648c-14.336 0-25.9584 11.6736-25.9584 25.9584s11.6736 26.0096 25.9584 26.0096 25.9584-11.6736 25.9584-26.0096-11.6224-25.9584-25.9584-25.9584zM578.6112 750.336c-53.8624 0-97.6384-43.8272-97.6384-97.6384s43.8272-97.6896 97.6384-97.6896 97.6384 43.8272 97.6384 97.6896-43.776 97.6384-97.6384 97.6384z m0-123.648c-14.336 0-25.9584 11.6736-25.9584 26.0096 0 14.336 11.6736 25.9584 25.9584 25.9584s25.9584-11.6736 25.9584-25.9584c0-14.336-11.6224-26.0096-25.9584-26.0096zM389.0176 661.9648c-9.216 0-18.432-3.5328-25.4464-10.5984-13.9264-14.0288-13.8752-36.7616 0.2048-50.688l231.9872-230.1952c14.0288-13.9264 36.7616-13.8752 50.688 0.2048 13.9264 14.0288 13.8752 36.7616-0.2048 50.688l-231.9872 230.1952a35.70176 35.70176 0 0 1-25.2416 10.3936z" fill="#ffffff" p-id="15749"></path></svg>