<?xml version="1.0" standalone="no"?><!DOCTYPE svg PUBLIC "-//W3C//DTD SVG 1.1//EN" "http://www.w3.org/Graphics/SVG/1.1/DTD/svg11.dtd"><svg t="1661154572321" class="icon" viewBox="0 0 1024 1024" version="1.1" xmlns="http://www.w3.org/2000/svg" p-id="12745" xmlns:xlink="http://www.w3.org/1999/xlink" width="200" height="200"><defs><style type="text/css">@font-face { font-family: feedback-iconfont; src: url("//at.alicdn.com/t/font_1031158_u69w8yhxdu.woff2?t=1630033759944") format("woff2"), url("//at.alicdn.com/t/font_1031158_u69w8yhxdu.woff?t=1630033759944") format("woff"), url("//at.alicdn.com/t/font_1031158_u69w8yhxdu.ttf?t=1630033759944") format("truetype"); }
</style></defs><path d="M512 118.153846C272.738462 118.153846 78.769231 312.123077 78.769231 551.384615s193.969231 433.230769 433.230769 433.23077 433.230769-193.969231 433.230769-433.23077S751.261538 118.153846 512 118.153846z m0 78.769231a354.461538 354.461538 0 1 1 0 708.923077 354.461538 354.461538 0 0 1 0-708.923077z" fill="#ffffff" p-id="12746"></path><path d="M518.971077 701.755077l108.819692-187.943385a17.604923 17.604923 0 0 0-3.859692-22.252307 12.681846 12.681846 0 0 0-7.719385-2.717539h-85.582769V370.530462c0-8.861538-6.301538-16.068923-13.981538-16.068924a13.587692 13.587692 0 0 0-11.618462 7.168l-108.819692 187.943385a17.604923 17.604923 0 0 0 3.859692 22.252308 12.681846 12.681846 0 0 0 7.719385 2.717538h85.582769v118.311385c0 8.861538 6.301538 16.068923 13.981538 16.068923 4.647385 0 9.058462-2.678154 11.618462-7.168z" fill="#ffffff" p-id="12747"></path><path d="M360.408615 21.110154a39.384615 39.384615 0 0 1 21.661539 75.736615A472.457846 472.457846 0 0 0 168.014769 227.249231a39.384615 39.384615 0 0 1-57.304615-54.035693A551.227077 551.227077 0 0 1 360.448 21.110154zM680.369231 21.110154a39.384615 39.384615 0 1 0-21.661539 75.736615A472.457846 472.457846 0 0 1 872.763077 227.249231a39.384615 39.384615 0 1 0 57.304615-54.035693 551.227077 551.227077 0 0 0-249.698461-152.103384z" fill="#ffffff" p-id="12748"></path></svg>