<?xml version="1.0" standalone="no"?><!DOCTYPE svg PUBLIC "-//W3C//DTD SVG 1.1//EN" "http://www.w3.org/Graphics/SVG/1.1/DTD/svg11.dtd"><svg t="1673359791295" class="icon" viewBox="0 0 1024 1024" version="1.1" xmlns="http://www.w3.org/2000/svg" p-id="4095" xmlns:xlink="http://www.w3.org/1999/xlink" width="200" height="200"><path d="M729.5 959.3H295.9c-83.7 0-151.7-68.1-151.7-151.7V215.7c0-83.7 68-151.7 151.7-151.7h433.6c83.7 0 151.7 68.1 151.7 151.7v591.9c0 83.6-68.1 151.7-151.7 151.7zM295.9 104c-61.6 0-111.7 50.1-111.7 111.7v591.9c0 61.6 50.1 111.7 111.7 111.7h433.6c61.6 0 111.7-50.1 111.7-111.7V215.7c0-61.6-50.1-111.7-111.7-111.7H295.9z" fill="#2c2c2c" p-id="4096"></path><path d="M514.5 379.1c-29.2 0-57.3-10.8-81.5-31.4L191.7 142.9c-8.4-7.1-9.5-19.8-2.3-28.2 7.1-8.4 19.8-9.5 28.2-2.3l241.3 204.9c34.3 29.1 76.9 29.1 111.2 0l241.3-204.9c8.4-7.1 21-6.1 28.2 2.3 7.1 8.4 6.1 21-2.3 28.2L596 347.7c-24.1 20.6-52.3 31.4-81.5 31.4z" fill="#2c2c2c" p-id="4097"></path><path d="M366.8 587.4h291.9v49.2H366.8zM366.8 676h291.9v49.2H366.8z" fill="#2c2c2c" p-id="4098"></path><path d="M488.213 821.76v-234.3h49.2v234.3z" fill="#2c2c2c" p-id="4099"></path><path d="M670.4 457.5l-145.7 178-42.6-17.4 131.5-160.6z" fill="#2c2c2c" p-id="4100"></path><path d="M356.4 457.5l145.6 178 42.7-17.4-131.5-160.6z" fill="#2c2c2c" p-id="4101"></path></svg>