<svg t="1666100047381" class="icon" viewBox="0 0 1024 1024" version="1.1" xmlns="http://www.w3.org/2000/svg" p-id="8371" width="200" height="200"><path d="M721.888 504.104a30.4 30.4 0 1 0 0-60.8H592.2l88.504-85.752a30.4 30.4 0 0 0 0.656-42.992 30.376 30.376 0 0 0-42.992-0.68l-101.92 98.768c-8.464 8.2-11.008 20.096-7.816 30.656h-33.264c3.192-10.552 0.656-22.456-7.808-30.656L385.608 313.872a30.424 30.424 0 0 0-42.992 0.68 30.416 30.416 0 0 0 0.68 42.992l88.512 85.752H302.08a30.4 30.4 0 0 0 0 60.8h179.528v60.096H302.08c-16.792 0-30.4 13.592-30.4 30.4s13.616 30.4 30.4 30.4h179.528v63.264a30.4 30.4 0 1 0 60.792 0v-63.264h179.496c16.808 0 30.408-13.592 30.408-30.4s-13.6-30.4-30.408-30.4H542.4v-60.096h179.488z" fill="#f4ea2a" p-id="8372"></path><path d="M993.832 448.016a30.392 30.392 0 0 0 30.168-30.4V268.912c0-66.992-54.536-121.488-121.536-121.488H121.512C54.512 147.424 0 201.92 0 268.912v148.712c0 17.44 13.112 31.544 32.48 30.328 34.736 0.68 62.792 29.16 62.792 64.056 0 34.8-27.896 63.2-62.496 64.04C13.968 574.76 0 588.776 0 606.352v148.736c0 66.976 54.512 121.496 121.512 121.496h780.944c67 0 121.536-54.512 121.536-121.496V606.352a30.416 30.416 0 0 0-30.168-30.408c-35-0.264-63.472-28.968-63.472-63.944 0.016-35 28.48-63.696 63.48-63.984zM963.2 632.808v122.28c0 33.464-27.256 60.688-60.744 60.688H121.512c-33.472 0-60.712-27.224-60.712-60.688V633.336C115.416 620.008 156.072 570.664 156.072 512S115.416 403.992 60.808 390.68V268.912c0-33.456 27.24-60.68 60.712-60.68h780.944c33.488 0 60.744 27.224 60.744 60.68v122.272c-53.744 13.92-93.64 62.952-93.64 120.816-0.008 57.832 39.896 106.872 93.632 120.808z" fill="#f4ea2a" p-id="8373"></path></svg>