<?xml version="1.0" standalone="no"?><!DOCTYPE svg PUBLIC "-//W3C//DTD SVG 1.1//EN" "http://www.w3.org/Graphics/SVG/1.1/DTD/svg11.dtd"><svg t="1673359981630" class="icon" viewBox="0 0 1024 1024" version="1.1" xmlns="http://www.w3.org/2000/svg" p-id="6977" xmlns:xlink="http://www.w3.org/1999/xlink" width="200" height="200"><path d="M857.555 326.127a36.43 36.43 0 0 0-33.074-21.557H636.107l35.95-195.933a36.872 36.872 0 0 0-7.67-29.702A35.96 35.96 0 0 0 636.587 66H320.231c-16.386 0.178-30.579 11.407-34.511 27.307l-120.79 481.45a37.829 37.829 0 0 0 6.71 31.138 35.956 35.956 0 0 0 28.281 13.893h106.89l-52.726 295.576c-2.587 15.83 5.357 31.515 19.652 38.804A38.363 38.363 0 0 0 289.556 958a35 35 0 0 0 26.362-11.976L852.282 364.93a35.913 35.913 0 0 0 5.273-38.804z m-510.96 479.055L385.42 588.17a35.916 35.916 0 0 0-8.714-28.062 35.958 35.958 0 0 0-26.756-12.178H245.937l102.575-410.071h244.935l-35.95 196.412a35.915 35.915 0 0 0 7.892 29.352 35.958 35.958 0 0 0 27.579 12.805h150.028l-396.4 428.754z" fill="#8a8a8a" p-id="6978"></path><path d="M430.062 177.066a35.854 35.854 0 0 0-27.24 4.113 35.916 35.916 0 0 0-16.3 22.228l-65.548 261.011c-4.53 19.274 7.161 38.637 26.315 43.582h8.612c16.477-0.127 30.809-11.329 34.928-27.298l65.07-260.054c4.838-19.17-6.71-38.648-25.837-43.582z" fill="#8a8a8a" p-id="6979"></path></svg>