<?xml version="1.0" standalone="no"?><!DOCTYPE svg PUBLIC "-//W3C//DTD SVG 1.1//EN" "http://www.w3.org/Graphics/SVG/1.1/DTD/svg11.dtd"><svg t="1673360737954" class="icon" viewBox="0 0 1024 1024" version="1.1" xmlns="http://www.w3.org/2000/svg" p-id="8027" width="200" height="200" data-spm-anchor-id="a313x.7781069.0.i41" xmlns:xlink="http://www.w3.org/1999/xlink"><path d="M763.221333 340.736c-21.546667 47.274667-75.029333 72.448-138.261333 72.448-30.442667 0-62.506667-5.845333-93.866667-17.28-18.304-6.656-29.866667-11.669333-70.016-29.717333l-10.026666-4.48c-46.272-20.650667-73.514667-30.208-90.688-31.104l1.856 1.898666c12.245333 11.989333 118.250667 78.677333 149.12 102.464 21.226667 16.341333 40.554667 33.237333 58.410666 51.413334 70.698667 72 59.306667 209.962667-21.205333 272.832-29.162667 22.762667-65.770667 33.856-105.386667 33.856-61.781333 0-127.552-27.221333-171.178666-70.485334-74.944-74.304-97.344-231.189333-68.544-353.194666 8.554667-36.224 9.109333-58.496 5.205333-68.458667-0.917333-2.325333-1.706667-2.901333-8.661333-4.586667-10.261333-2.496-23.637333 8.896-33.984 35.477334C47.658667 633.706667 222.848 896 511.658667 896c42.389333 0 85.973333-5.973333 128.576-17.621333C951.68 781.589333 989.312 337.749333 694.101333 160c-21.013333-12.672-39.68-21.397333-55.146666-26.496 101.568 49.429333 158.762667 131.285333 124.266666 207.253333zM610.602667 85.333333c25.088 0 60.608 11.050667 105.514666 38.08 328 197.546667 282.133333 688.362667-63.232 795.733334-48.405333 13.248-95.786667 19.52-141.226666 19.52C207.765333 938.666667-8.576 660.245333 126.272 316.245333c14.229333-36.544 43.264-71.189333 83.754667-61.376 33.706667 8.170667 56.832 31.594667 34.944 124.309334-21.888 92.736-12.629333 244.010667 57.045333 313.109333 35.413333 35.114667 90.282667 58.112 141.12 58.112 29.205333 0 57.066667-7.573333 79.146667-24.832 60.544-47.253333 69.76-155.584 17.024-209.28-108.224-110.208-248.405333-140.245333-222.229334-203.946667 7.253333-17.664 21.76-24.490667 40.661334-24.490666 49.28 0 128.533333 46.357333 187.946666 67.968 27.477333 10.026667 54.613333 14.698667 79.274667 14.698666 47.424 0 85.696-17.344 99.413333-47.466666 22.677333-49.92-21.973333-111.466667-104.810666-151.552-24.362667-11.776-51.882667-19.328-52.48-49.664C566.613333 100.032 581.674667 85.333333 610.602667 85.333333z m-120.448 227.925334c-57.066667-12.586667-94.186667-58.496-82.773334-102.378667 5.12-19.904 19.52-37.077333 40.533334-48.256 24.490667-13.013333 55.829333-16.682667 85.973333-10.048 56.917333 12.586667 94.058667 58.496 82.773333 102.378667-5.141333 19.968-19.52 37.12-40.512 48.277333-16.448 8.746667-36.053333 13.269333-56.277333 13.269333-9.834667 0-19.84-1.066667-29.717333-3.242666z m8.746666-40.938667c5.909333 1.066667 11.925333 1.6 17.834667 1.6 12.138667 0 23.893333-2.218667 33.749333-6.506667 12.586667-5.461333 21.226667-13.866667 24.32-23.68 6.762667-21.482667-15.509333-43.989333-49.685333-50.133333-18.069333-3.264-36.864-1.472-51.562667 4.906667-12.608 5.482667-21.248 13.888-24.32 23.658666-6.848 21.504 15.424 44.010667 49.642667 50.154667z" fill="#49ade1" p-id="8028"></path></svg>