<svg t="1666100356208" class="icon" viewBox="0 0 1244 1024" version="1.1" xmlns="http://www.w3.org/2000/svg"
    p-id="10319" width="200" height="200">
    <path
        d="M508.770423 6.921555C231.770945 6.921555 7.225005 231.467495 7.225005 508.466972c0 276.963353 224.545939 501.502067 501.545417 501.502067 276.992253 0 501.530967-224.538714 501.530967-501.502067C1010.30139 231.467495 785.762676 6.921555 508.770423 6.921555zM508.770423 985.512397c-263.481493 0-477.074324-213.592831-477.074324-477.045424 0-263.481493 213.592831-477.074324 477.074324-477.074324 263.488718 0 477.074324 213.592831 477.074324 477.074324C985.844747 771.92679 772.259141 985.512397 508.770423 985.512397z"
        p-id="10320" fill="#1296db"></path>
    <path d="M1243.380061 682.943625" p-id="10321" fill="#1296db"></path>
    <path
        d="M902.070811 792.29408 571.353418 589.242532c18.402088-28.972271 42.837056-67.79945 75.327905-119.913413 5.938954-9.522557 6.242405-21.544966 0.801976-31.363748-5.447654-9.811557-15.808312-15.916687-27.028745-15.916687l-109.16983 0 0-52.569139 215.782008 0c9.284132 0 16.819812-7.528456 16.819812-16.812587 0-9.284132-7.535681-16.819812-16.819812-16.819812L511.284724 335.847146 511.284724 248.634107c0-9.284132-7.528456-16.812587-16.812587-16.812587-9.284132 0-16.812587 7.528456-16.812587 16.812587l0 87.220264L263.033543 335.854371c-9.284132 0-16.812587 7.528456-16.812587 16.819812 0 9.284132 7.528456 16.812587 16.812587 16.812587l214.626007 0 0 52.569139L312.936654 422.055909c-9.284132 0-16.812587 7.528456-16.812587 16.812587 0 9.291357 7.528456 16.812587 16.812587 16.812587l302.626572 0c-28.690496 45.987159-53.912989 86.085938-74.157454 117.962661-73.528879-36.023876-138.655077-51.470938-193.926367-45.958259-27.173245 2.716602-51.174712 10.534058-71.339702 23.242842-18.416538 11.603358-33.408424 27.389995-43.357257 45.647583-13.40961 24.622818-17.441163 52.634164-11.350483 78.846483 6.36523 27.375545 23.112792 49.679136 47.150385 62.799746 54.946165 30.005447 112.580032 31.284273 166.673647 3.670303 44.809483-22.888817 72.914753-58.031243 79.373908-66.650674 2.434827-2.810527 9.313032-11.950159 38.610428-57.597742l337.530572 203.304424c2.601002 1.459451 3.236802-3.612503 6.025654-3.612503 1.062076 0 6.78428-5.534354 7.824681-5.722204C909.079066 810.898469 908.23374 798.449785 902.070811 792.29408zM489.392958 653.017653l-0.628575 0.657475-0.65025 0.888676c-2.723827 3.691978-27.794595 36.768052-68.139025 57.366542-44.368757 22.650392-89.871841 21.566641-135.259324-3.229577-32.288549-17.621788-42.129006-59.823044-22.390291-96.04922 15.851662-29.102321 47.280435-47.40326 88.49909-51.521513 5.975079-0.59245 12.130784-0.888676 18.467114-0.888676 43.956932 0 96.367121 14.298285 153.892613 41.955606C504.514895 631.284837 492.564736 649.304001 489.392958 653.017653z"
        p-id="10322" fill="#1296db"></path>
</svg>