<?xml version="1.0" standalone="no"?><!DOCTYPE svg PUBLIC "-//W3C//DTD SVG 1.1//EN" "http://www.w3.org/Graphics/SVG/1.1/DTD/svg11.dtd"><svg t="1672208564164" class="icon" viewBox="0 0 1024 1024" version="1.1" xmlns="http://www.w3.org/2000/svg" p-id="4671" xmlns:xlink="http://www.w3.org/1999/xlink" width="200" height="200"><path d="M824.832 102.4H229.888A127.488 127.488 0 0 0 102.4 229.888v594.944a127.488 127.488 0 0 0 127.488 127.488h594.944a127.488 127.488 0 0 0 127.488-127.488V229.888A127.488 127.488 0 0 0 824.832 102.4z m42.496 722.432a42.496 42.496 0 0 1-42.496 42.496H229.888a42.496 42.496 0 0 1-42.496-42.496V229.888a42.496 42.496 0 0 1 42.496-42.496h594.944a42.496 42.496 0 0 1 42.496 42.496zM644.096 286.72L527.36 420.352 409.6 286.72a43.008 43.008 0 0 0-60.416-4.096 42.496 42.496 0 0 0-2.56 60.416l123.904 141.824H399.872a42.496 42.496 0 0 0 0 84.992h84.992V614.4H399.872a42.496 42.496 0 0 0 0 84.992h84.992v42.496a42.496 42.496 0 0 0 84.992 0v-42.496h84.992a42.496 42.496 0 0 0 0-84.992h-84.992v-42.496h84.992a42.496 42.496 0 0 0 0-84.992H583.68l124.416-143.872a43.008 43.008 0 0 0-4.096-59.904 42.496 42.496 0 0 0-59.904 3.584z" p-id="4672"></path></svg>