<?xml version="1.0" standalone="no"?><!DOCTYPE svg PUBLIC "-//W3C//DTD SVG 1.1//EN" "http://www.w3.org/Graphics/SVG/1.1/DTD/svg11.dtd"><svg t="1672208579229" class="icon" viewBox="0 0 1024 1024" version="1.1" xmlns="http://www.w3.org/2000/svg" p-id="4971" xmlns:xlink="http://www.w3.org/1999/xlink" width="200" height="200"><path d="M96 352.256a32 32 0 0 0 0 64h128v96a32 32 0 1 0 64 0v-96h128a32 32 0 0 0 0-64h-128v-64h128a32 32 0 0 0 0-64H304.384l-1.088-1.088 102.4-102.336a33.472 33.472 0 0 0-47.296-47.296L256 175.936l-102.4-102.4a33.472 33.472 0 0 0-47.296 47.296l102.4 102.4-1.088 1.024H96a32 32 0 0 0 0 64h128v64h-128z m832 544H896v-544a64 64 0 0 0-64-64h-64a64 64 0 0 0-64 64v544h-64v-320a64 64 0 0 0-64-64H512a64 64 0 0 0-64 64v320H384v-192a64 64 0 0 0-64-64H256a64 64 0 0 0-64 64v192H96a32 32 0 0 0 0 64h832a32 32 0 0 0 0-64z m-608 0H256v-192h64v192z m256 0H512v-320h64v320z m256 0h-64v-544h64v544z" fill="" p-id="4972"></path></svg>