<?xml version="1.0" standalone="no"?>
<!DOCTYPE svg PUBLIC "-//W3C//DTD SVG 1.1//EN" "http://www.w3.org/Graphics/SVG/1.1/DTD/svg11.dtd">
<svg t="1661154446199" class="icon" viewBox="0 0 1024 1024" version="1.1" xmlns="http://www.w3.org/2000/svg"
    p-id="11665" xmlns:xlink="http://www.w3.org/1999/xlink" width="200" height="200">
    <defs>
        <style type="text/css">
            @font-face {
                font-family: feedback-iconfont;
                src: url("//at.alicdn.com/t/font_1031158_u69w8yhxdu.woff2?t=1630033759944") format("woff2"), url("//at.alicdn.com/t/font_1031158_u69w8yhxdu.woff?t=1630033759944") format("woff"), url("//at.alicdn.com/t/font_1031158_u69w8yhxdu.ttf?t=1630033759944") format("truetype");
            }
        </style>
    </defs>
    <path
        d="M298.666667 384h341.333333c12.8 0 21.333333-8.533333 21.333333-21.333333S652.8 341.333333 640 341.333333H298.666667c-12.8 0-21.333333 8.533333-21.333334 21.333334s8.533333 21.333333 21.333334 21.333333zM298.666667 554.666667h256c12.8 0 21.333333-8.533333 21.333333-21.333334s-8.533333-21.333333-21.333333-21.333333H298.666667c-12.8 0-21.333333 8.533333-21.333334 21.333333s8.533333 21.333333 21.333334 21.333334zM298.666667 725.333333h170.666666c12.8 0 21.333333-8.533333 21.333334-21.333333s-8.533333-21.333333-21.333334-21.333333H298.666667c-12.8 0-21.333333 8.533333-21.333334 21.333333s8.533333 21.333333 21.333334 21.333333z"
        fill="#ffffff" p-id="11666"></path>
    <path
        d="M810.666667 200.533333c-8.533333-51.2-51.2-93.866667-106.666667-93.866666h-85.333333V42.666667c0-12.8-8.533333-21.333333-21.333334-21.333334s-21.333333 8.533333-21.333333 21.333334v64h-213.333333V42.666667c0-12.8-8.533333-21.333333-21.333334-21.333334s-21.333333 8.533333-21.333333 21.333334v64h-85.333333C174.933333 106.666667 128 153.6 128 213.333333v597.333334c0 59.733333 46.933333 106.666667 106.666667 106.666666 8.533333 51.2 51.2 93.866667 106.666666 93.866667h469.333334c59.733333 0 106.666667-46.933333 106.666666-106.666667v-597.333333c0-59.733333-46.933333-106.666667-106.666666-106.666667zM170.666667 810.666667V213.333333c0-34.133333 29.866667-64 64-64h85.333333V170.666667c0 12.8 8.533333 21.333333 21.333333 21.333333s21.333333-8.533333 21.333334-21.333333v-21.333334h213.333333V170.666667c0 12.8 8.533333 21.333333 21.333333 21.333333s21.333333-8.533333 21.333334-21.333333v-21.333334h85.333333c34.133333 0 64 29.866667 64 64v597.333334c0 34.133333-29.866667 64-64 64h-469.333333c-34.133333 0-64-29.866667-64-64z m704 93.866666c0 34.133333-29.866667 64-64 64H341.333333c-29.866667 0-55.466667-21.333333-64-51.2h426.666667c59.733333 0 106.666667-46.933333 106.666667-106.666666V243.2c34.133333 0 64 29.866667 64 64v597.333333z"
        fill="#ffffff" p-id="11667"></path>
</svg>