<?xml version="1.0" standalone="no"?><!DOCTYPE svg PUBLIC "-//W3C//DTD SVG 1.1//EN" "http://www.w3.org/Graphics/SVG/1.1/DTD/svg11.dtd"><svg t="1709301440613" class="icon" viewBox="0 0 1024 1024" version="1.1" xmlns="http://www.w3.org/2000/svg" p-id="4263" xmlns:xlink="http://www.w3.org/1999/xlink" width="200" height="200"><path d="M511.411823 479.515804c-8.335314 0-16.267306-3.898776-21.376047-10.620803l-107.552433-141.162569c-9.007516-11.830768-6.722027-28.635835 5.10874-37.643352s28.635835-6.722027 37.643352 5.108741l86.176388 113.064496 86.176387-113.064496c9.007516-11.830768 25.812584-14.116257 37.643352-5.108741s14.116257 25.812584 5.108741 37.643352l-107.552434 141.162569c-4.9743 6.722027-12.906292 10.620803-21.376046 10.620803z" p-id="4264" fill="#d4237a"></path><path d="M645.852365 492.959858h-268.881085c-14.78846 0-26.888108-12.099649-26.888108-26.888108s12.099649-26.888108 26.888108-26.888109h268.881085c14.78846 0 26.888108 12.099649 26.888108 26.888109s-11.965208 26.888108-26.888108 26.888108zM645.852365 613.956346h-268.881085c-14.78846 0-26.888108-12.099649-26.888108-26.888108s12.099649-26.888108 26.888108-26.888109h268.881085c14.78846 0 26.888108 12.099649 26.888108 26.888109s-11.965208 26.888108-26.888108 26.888108z" p-id="4265" fill="#d4237a"></path><path d="M511.411823 751.085699c-14.78846 0-26.888108-12.099649-26.888109-26.888108V466.07175c0-14.78846 12.099649-26.888108 26.888109-26.888109s26.888108 12.099649 26.888108 26.888109v258.125841c0 14.78846-11.965208 26.888108-26.888108 26.888108zM58.616076 711.425739c-10.889684 0-21.107165-6.587587-25.140381-17.34283C11.561887 636.273476 0.537762 575.371911 0.537762 513.12594c0-68.967998 13.444054-135.919388 40.197722-198.837562 25.678144-60.901566 62.514852-115.484426 109.434602-162.404175S251.672695 68.127745 312.43982 42.449601C375.492434 15.830374 442.443824 2.251879 511.411823 2.251879c14.78846 0 26.888108 12.099649 26.888108 26.888109s-12.099649 26.888108-26.888108 26.888108c-122.072012 0-236.884235 47.591952-323.195064 133.90278C101.77149 276.241704 54.313979 391.053927 54.313979 513.12594c0 55.792825 9.9486 110.241245 29.442479 161.866412 5.243181 13.847376-1.747727 29.442479-15.595103 34.68566-3.092132 1.209965-6.318705 1.747727-9.545279 1.747727zM511.411823 1024c-14.78846 0-26.888108-12.099649-26.888109-26.888108s12.099649-26.888108 26.888109-26.888109c122.072012 0 236.884235-47.591952 323.195063-133.90278s133.90278-201.123051 133.90278-323.195063c0-63.052614-12.637411-123.95418-37.374471-181.360292-5.915384-13.578495 0.403322-29.442479 13.981817-35.357863 13.578495-5.915384 29.442479 0.403322 35.357862 13.981817 27.694752 64.128139 41.811009 132.289494 41.811009 202.736338 0 68.967998-13.444054 135.919388-40.197722 198.837561-25.678144 60.901566-62.514852 115.484426-109.434601 162.404176-46.919749 46.919749-101.502609 83.756458-162.404175 109.434601C647.19677 1010.555946 580.379821 1024 511.411823 1024zM994.725572 172.319165h-259.470247c-15.191781 0-27.022549-11.965208-27.022549-27.29143s11.830768-27.29143 27.022549-27.29143h259.470247c15.191781 0 27.022549 11.965208 27.022549 27.29143s-11.965208 27.29143-27.022549 27.29143z" p-id="4266" fill="#d4237a"></path><path d="M807.046575 289.282437c-6.990908 0-13.981816-2.688811-18.821676-8.066433l-115.081104-116.963272c-10.217481-10.351922-10.217481-27.829192 0-38.181114l115.081104-117.904355c10.217481-10.889684 27.560311-10.889684 38.315555 0 10.755243 10.351922 10.755243 27.829192 0 38.718876l-96.797191 98.410477 96.124988 97.872715c10.217481 10.889684 10.217481 27.829192 0 38.718876-4.83986 4.570978-11.830768 7.39423-18.821676 7.39423z" p-id="4267" fill="#d4237a"></path><path d="M27.022549 905.692323C11.965208 905.692323 0 893.727115 0 878.400893s11.830768-27.29143 27.022549-27.29143h259.470246c15.191781 0 27.022549 11.965208 27.022549 27.29143s-11.830768 27.29143-27.022549 27.29143h-259.470246z" p-id="4268" fill="#d4237a"></path><path d="M214.701546 1022.655595c-6.990908 0-13.981816-2.823251-18.821676-7.39423-10.217481-10.889684-10.217481-27.829192 0-38.718876l96.124988-97.872715-96.797191-98.410477c-10.755243-10.889684-10.755243-28.366954 0-38.718876 10.755243-10.889684 28.098073-10.889684 38.315555 0l115.081104 117.904355c10.217481 10.351922 10.217481 27.829192 0 38.181114l-115.081104 116.963272c-4.83986 5.377622-11.830768 8.066433-18.821676 8.066433z" p-id="4269" fill="#d4237a"></path></svg>